<?xml version="1.0" encoding="UTF-8"?><svg id="Vrstva_2" xmlns="http://www.w3.org/2000/svg" viewBox="0 0 701.62 137.94"><defs><style>.cls-1 {
        fill: #62b22f;
      }

      .cls-2 {
        fill: #fff;
      }

      .cls-3 {
        fill: none;
      }

      .cls-4 {
        fill: #008d36;
      }

      .cls-5 {
        fill: #0963ae;
      }

      .cls-6 {
        fill: #1c3159;
      }</style></defs><g id="Vrstva_1-2" data-name="Vrstva_1"><rect class="cls-2" y="0" width="701.62" height="137.94"/><g><path class="cls-5" d="M308.49,27.7l-11.09,11.08,10.94,10.95c1.57-2.06,3.28-4.05,5.16-5.93,1.87-1.87,3.85-3.59,5.92-5.17l-10.94-10.94Z"/><path class="cls-5" d="M0,0v86.61h296.47c-.26-10.47,2.26-20.99,7.57-30.36l-12.05-12.05-3.92,3.92-14.44-14.45,29.75-29.75,14.44,14.45-3.92,3.92,12.04,12.04c8.71-4.97,18.59-7.63,28.89-7.63,15.61,0,30.28,6.08,41.32,17.11,11.04,11.04,17.12,25.71,17.12,41.32,0,.5-.02.99-.04,1.48h288.39V0H0Z"/></g><g><g><path class="cls-4" d="M381.61,84.6s-5.66-6.68-14.7-3.39c-9.05,3.29-26.76,19.39-35.23,8.77,0,0,3.24,21.72,28.08,18.57,22.54-2.87,21.85-23.94,21.85-23.94Z"/><path class="cls-1" d="M331.68,84.6s5.66-6.68,14.7-3.39,26.76,19.39,35.23,8.77c0,0-3.24,21.72-28.08,18.57-22.54-2.87-21.85-23.94-21.85-23.94Z"/><path class="cls-3" d="M382.65,82.71c0,14.27-11.57,25.83-25.83,25.83-14.27,0-25.83-11.57-25.83-25.83s11.57-25.83,25.83-25.83,25.83,11.57,25.83,25.83Z"/></g><path class="cls-6" d="M356.2,110.54c-7.39,0-14.33-2.88-19.55-8.1-10.78-10.78-10.78-28.32,0-39.1,5.22-5.22,12.16-8.1,19.55-8.1s14.33,2.88,19.55,8.1h0c5.22,5.22,8.1,12.16,8.1,19.55s-2.88,14.33-8.1,19.55c-5.22,5.22-12.16,8.1-19.55,8.1ZM356.2,58.87c-6.42,0-12.45,2.5-16.99,7.04-9.37,9.37-9.37,24.61,0,33.97,4.54,4.54,10.57,7.04,16.99,7.04s12.45-2.5,16.98-7.04c4.54-4.54,7.04-10.57,7.04-16.99s-2.5-12.45-7.04-16.99h0c-4.54-4.54-10.57-7.04-16.98-7.04Z"/><g><rect class="cls-6" x="327.53" y="56.76" width="3.62" height="14.19" transform="translate(51.29 251.55) rotate(-44.99)"/><rect class="cls-6" x="335.34" y="48.95" width="3.62" height="14.19" transform="translate(59.12 254.82) rotate(-45)"/></g><rect class="cls-6" x="318.28" y="50.1" width="19.91" height="9.67" transform="translate(57.26 248.14) rotate(-44.99)"/></g></g></svg>