<?xml version="1.0" encoding="UTF-8"?><svg id="Vrstva_2" xmlns="http://www.w3.org/2000/svg" viewBox="0 0 701.62 137.94"><defs><style>.cls-1 {
        fill: #fff;
      }

      .cls-2 {
        fill: #f9b233;
      }

      .cls-3 {
        fill: #008d36;
      }

      .cls-4 {
        fill: #0963ae;
      }

      .cls-5 {
        fill: #1c3159;
      }

      .cls-6 {
        fill: #e6332a;
      }

      .cls-7 {
        fill: #0063af;
      }</style></defs><g id="Vrstva_1-2" data-name="Vrstva_1"><g><rect class="cls-1" y="0" width="701.62" height="137.94"/><g><path class="cls-4" d="M308.49,27.7l-11.09,11.08,10.94,10.95c1.57-2.06,3.28-4.05,5.16-5.93,1.87-1.87,3.85-3.59,5.92-5.17l-10.94-10.94Z"/><path class="cls-4" d="M0,0v86.61h296.47c-.26-10.47,2.26-20.99,7.57-30.36l-12.05-12.05-3.92,3.92-14.44-14.45,29.75-29.75,14.44,14.45-3.92,3.92,12.04,12.04c8.71-4.97,18.59-7.63,28.89-7.63,15.61,0,30.28,6.08,41.32,17.11,11.04,11.04,17.12,25.71,17.12,41.32,0,.5-.02.99-.04,1.48h288.39V0H0Z"/></g><g><path class="cls-5" d="M353.44,111.73c-8.5,0-16.53-3.63-22.15-10.03-5.52-6.29-8.12-14.67-7.11-22.99,1.02-8.43,5.45-15.78,12.47-20.69,11.21-7.84,26.65-6.79,36.71,2.48,6.18,5.69,9.57,13.42,9.55,21.77,0,2.13-1.02,4.04-2.79,5.22-1.86,1.24-4.23,1.47-6.36.6-1.74-.71-3.6-.94-5.55-.68-4.16.57-7.69,3.66-8.79,7.7-.69,2.55-.48,5.12.61,7.43.9,1.92.76,4.17-.38,6.02-1.18,1.92-3.22,3.1-5.44,3.16-.26,0-.52.01-.78.01ZM353.42,56.64c-5.09,0-10.2,1.5-14.56,4.55-6.11,4.27-9.96,10.66-10.84,17.99-.87,7.23,1.38,14.51,6.18,19.98,5.03,5.73,12.25,8.87,19.92,8.7.91-.02,1.75-.52,2.25-1.33.46-.75.52-1.6.17-2.34-1.48-3.15-1.77-6.64-.84-10.09h0c1.5-5.52,6.32-9.74,11.99-10.52,2.63-.36,5.16-.05,7.54.93.92.38,1.95.29,2.74-.24.4-.27,1.07-.88,1.07-2.02.02-7.25-2.93-13.96-8.3-18.91-4.82-4.44-11.06-6.71-17.32-6.71Z"/><g><circle class="cls-2" cx="364.23" cy="71.39" r="5.35"/><circle class="cls-6" cx="349.45" cy="67.43" r="5.35"/><circle class="cls-3" cx="338.63" cy="78.25" r="5.35"/><circle class="cls-7" cx="342.59" cy="93.03" r="5.35"/></g></g></g></g></svg>